<svg xmlns:xlink="http://www.w3.org/1999/xlink" xmlns="http://www.w3.org/2000/svg" width="2237" height="858" viewBox="0 0 2237 858" fill="none">
<path d="M2039.6 705.39C2133.17 624.586 2220.34 465.049 2234.88 319.212C2247.6 191.485 2204.64 74.1672 2061.53 29.4873C1954.31 -3.95557 1836 -3.95557 1725.01 5.23391C1525.34 21.7604 1373.84 74.6547 1185.53 130.035C1042.34 169.572 917.626 184.319 744.955 182.808C597.724 181.565 450.298 170.961 303.116 172.375C179.425 173.618 -0.897802 200.017 0.00381035 485.061C-0.897802 747.656 158.395 792.336 277.238 796.09C493.235 802.988 709.305 793.287 925.254 805.548C1033.64 811.641 1141.81 821.197 1249.86 831.58C1353.47 841.574 1457.94 857.516 1562.13 857.979C1745.09 858.783 1889.64 837.26 2039.6 705.39Z" fill="#1A1A1E"/>
</svg>